<svg xmlns="http://www.w3.org/2000/svg" width="223" height="146" viewBox="0 0 223 146" fill="none">
<path d="M83.54 67.84C80.31 51.27 65.72 38.77 48.21 38.77C38.99 38.77 30.58 42.24 24.21 47.94V18.02C24.21 14.73 21.68 11.87 18.39 11.77C15.1 11.67 12.21 14.39 12.21 17.77V68.77C12.21 72.08 14.9 74.77 18.21 74.77C18.29 74.77 18.37 74.77 18.44 74.76C18.51 74.76 18.58 74.77 18.65 74.77H18.92C21.76 74.77 24.13 72.72 24.7 69.93C26.94 58.99 36.61 50.77 48.21 50.77C59.81 50.77 69.48 59 71.72 69.93C72.29 72.72 74.65 74.77 77.5 74.77H77.77C81.44 74.77 84.25 71.44 83.55 67.84H83.54Z" fill="#85A0E7"/>
<path d="M161.84 42.4C158.71 40.03 154.77 38.67 150.52 38.78C140.69 39.04 133 47.41 133 57.25V68.78C133 72.09 135.69 74.78 139 74.78C142.31 74.78 145 72.09 145 68.78V57.03C145 53.74 147.53 50.88 150.82 50.78C152.46 50.73 153.96 51.34 155.07 52.36C158.99 55.97 165.44 53.33 165 48.02C164.83 45.95 163.83 43.9 161.85 42.4H161.84Z" fill="#85A0E7"/>
<path d="M121.83 56.77C121.83 46.15 112.64 37.68 101.78 38.88C93.53 39.79 86.85 46.46 85.94 54.72C84.74 65.58 93.21 74.77 103.83 74.77C108.59 74.77 112.9 72.91 116.12 69.9C121.05 72.51 127.83 69.16 127.83 62.77C124.52 62.77 121.83 60.08 121.83 56.77ZM103.83 62.77C100.52 62.77 97.83 60.08 97.83 56.77C97.83 53.46 100.52 50.77 103.83 50.77C107.14 50.77 109.83 53.46 109.83 56.77C109.83 60.08 107.14 62.77 103.83 62.77Z" fill="#85A0E7"/>
<path d="M205.21 56.77V45.02C205.21 41.73 202.68 38.87 199.39 38.77C196.1 38.67 193.21 41.39 193.21 44.77V56.52C193.21 59.81 190.68 62.67 187.39 62.77C184.1 62.87 181.21 60.15 181.21 56.77V45.02C181.21 41.73 178.68 38.87 175.39 38.77C172.1 38.67 169.21 41.39 169.21 44.77V56.32C169.21 66.16 176.92 74.53 186.76 74.77C191.69 74.89 196.18 73.01 199.5 69.9C204.43 72.51 211.21 69.16 211.21 62.77C207.9 62.77 205.21 60.08 205.21 56.77Z" fill="#85A0E7"/>
<path d="M143.15 79.77C133.21 79.77 125.15 87.83 125.15 97.77C125.15 107.71 133.21 115.77 143.15 115.77C153.09 115.77 161.15 107.71 161.15 97.77C161.15 87.83 153.09 79.77 143.15 79.77ZM143.15 103.77C139.84 103.77 137.15 101.08 137.15 97.77C137.15 94.46 139.84 91.77 143.15 91.77C146.46 91.77 149.15 94.46 149.15 97.77C149.15 101.08 146.46 103.77 143.15 103.77Z" fill="#85A0E7"/>
<path d="M87.43 79.77C80.87 79.77 74.73 81.52 69.43 84.59C64.13 81.52 57.99 79.77 51.43 79.77C33.92 79.77 19.33 92.27 16.1 108.84C15.4 112.44 18.21 115.77 21.88 115.77H22.15C24.99 115.77 27.36 113.72 27.93 110.93C30.17 100 39.85 91.77 51.44 91.77C54.24 91.77 56.94 92.25 59.44 93.14C54.64 99.08 51.68 106.58 51.45 114.76C51.18 124.36 58.21 132.84 67.77 133.7C78.46 134.66 87.44 126.26 87.44 115.78C87.44 107.21 84.44 99.33 79.44 93.15C81.94 92.26 84.64 91.78 87.44 91.78C99.03 91.78 108.71 100.01 110.95 110.94C111.52 113.72 113.88 115.78 116.73 115.78H117C120.67 115.78 123.48 112.45 122.78 108.85C119.55 92.29 104.96 79.78 87.45 79.78L87.43 79.77ZM68.23 121.65C65.4 121.1 63.41 118.48 63.43 115.6C63.47 109.59 65.73 104.1 69.43 99.9C73.16 104.13 75.43 109.69 75.43 115.76C75.43 119.46 72.07 122.39 68.23 121.64V121.65Z" fill="#85A0E7"/>
<path d="M201.43 98.77H201.38C201.4 98.44 201.43 98.11 201.43 97.77C201.43 87.83 193.37 79.77 183.43 79.77C173.49 79.77 165.43 87.83 165.43 97.77C165.43 107.71 173.49 115.77 183.43 115.77C187.86 115.77 191.92 114.16 195.05 111.5C200.01 114.8 207.43 111.45 207.43 104.77C204.12 104.77 201.43 102.08 201.43 98.77ZM183.43 103.77C180.12 103.77 177.43 101.08 177.43 97.77C177.43 94.46 180.12 91.77 183.43 91.77C186.74 91.77 189.43 94.46 189.43 97.77C189.43 101.08 186.74 103.77 183.43 103.77Z" fill="#85A0E7"/>
</svg>