<svg xmlns="http://www.w3.org/2000/svg" width="12" height="12" viewBox="0 0 12 12" fill="none">
<mask id="path-1-inside-1_347_13413" fill="white">
<rect x="8.25" y="1.5" width="3" height="2.25" rx="0.375" transform="rotate(45 8.25 1.5)"/>
</mask>
<rect x="8.25" y="1.5" width="3" height="2.25" rx="0.375" transform="rotate(45 8.25 1.5)" stroke="#616161" stroke-width="1.5" mask="url(#path-1-inside-1_347_13413)"/>
<mask id="path-2-inside-2_347_13413" fill="white">
<path fill-rule="evenodd" clip-rule="evenodd" d="M9.30882 4.68187L7.1875 2.56055L2.14936 7.59868C2.14231 7.60574 2.13559 7.61301 2.12921 7.62047C2.06092 7.67902 2.01183 7.76237 1.99602 7.86691L1.73884 9.56722C1.69108 9.88297 1.98643 10.1783 2.30218 10.1306L4.00249 9.87338C4.10713 9.85755 4.19055 9.80838 4.24911 9.73998C4.25649 9.73365 4.26369 9.72699 4.27068 9.72L9.30882 4.68187Z"/>
</mask>
<path d="M7.1875 2.56055L7.71783 2.03022L7.1875 1.49989L6.65717 2.03022L7.1875 2.56055ZM9.30882 4.68187L9.83915 5.2122L10.3695 4.68187L9.83915 4.15154L9.30882 4.68187ZM2.12921 7.62047L2.61736 8.18986L2.66151 8.15202L2.69929 8.10782L2.12921 7.62047ZM1.99602 7.86691L2.73758 7.97908L2.73758 7.97908L1.99602 7.86691ZM1.73884 9.56722L0.99727 9.45505L0.99727 9.45505L1.73884 9.56722ZM2.30218 10.1306L2.19001 9.389L2.30218 10.1306ZM4.00249 9.87338L3.89032 9.13182L3.89032 9.13182L4.00249 9.87338ZM4.24911 9.73998L3.76135 9.17025L3.71718 9.20806L3.67937 9.25223L4.24911 9.73998ZM6.65717 3.09088L8.77849 5.2122L9.83915 4.15154L7.71783 2.03022L6.65717 3.09088ZM2.67969 8.12901L7.71783 3.09088L6.65717 2.03022L1.61903 7.06835L2.67969 8.12901ZM2.69929 8.10782C2.693 8.11518 2.68646 8.12225 2.67969 8.12901L1.61903 7.06835C1.59815 7.08923 1.57818 7.11084 1.55912 7.13313L2.69929 8.10782ZM1.64105 7.05108C1.43526 7.22752 1.29698 7.47356 1.25445 7.75475L2.73758 7.97908C2.72667 8.05118 2.68658 8.13052 2.61736 8.18986L1.64105 7.05108ZM1.25445 7.75475L0.99727 9.45505L2.4804 9.67939L2.73758 7.97908L1.25445 7.75475ZM0.99727 9.45505C0.873964 10.2703 1.59912 10.9954 2.41434 10.8721L2.19001 9.389C2.30063 9.37227 2.37843 9.41878 2.41452 9.45488C2.45061 9.49097 2.49713 9.56876 2.4804 9.67939L0.99727 9.45505ZM2.41434 10.8721L4.11465 10.6149L3.89032 9.13182L2.19001 9.389L2.41434 10.8721ZM4.11465 10.6149C4.39614 10.5724 4.64239 10.4338 4.81885 10.2277L3.67937 9.25223C3.73871 9.18292 3.81813 9.14274 3.89032 9.13182L4.11465 10.6149ZM3.74035 9.18967C3.74705 9.18298 3.75405 9.17649 3.76135 9.17025L4.73687 10.3097C4.75893 10.2908 4.78034 10.271 4.80101 10.2503L3.74035 9.18967ZM8.77849 4.15154L3.74035 9.18967L4.80101 10.2503L9.83915 5.2122L8.77849 4.15154Z" fill="#616161" mask="url(#path-2-inside-2_347_13413)"/>
</svg>